<svg xmlns="http://www.w3.org/2000/svg" xmlns:xlink="http://www.w3.org/1999/xlink" contentStyleType="text/css" height="552px" preserveAspectRatio="none" style="width:864px;height:552px;background:#FFFFFF;" version="1.1" viewBox="0 0 864 552" width="864px" zoomAndPan="magnify"><title>Modelos do sistema</title><defs/><g><rect fill="#F0F0F0" height="26.2969" id="_title" rx="6" ry="6" style="stroke:#004D65;stroke-width:1.0;" width="166.8916" x="341.668" y="5"/><text fill="#004D65" font-family="VictorMono NF" font-size="14" font-weight="bold" lengthAdjust="spacing" textLength="156.8916" x="346.668" y="22.9951">Modelos do sistema</text><!--cluster ambitech--><g id="cluster_ambitech"><path d="M255.5,43.2969 L329.8086,43.2969 A3.75,3.75 0 0 1 332.3086,45.7969 L339.3086,65.5938 L582.5,65.5938 A2.5,2.5 0 0 1 585,68.0938 L585,255.6869 A2.5,2.5 0 0 1 582.5,258.1869 L255.5,258.1869 A2.5,2.5 0 0 1 253,255.6869 L253,45.7969 A2.5,2.5 0 0 1 255.5,43.2969 " fill="none" style="stroke:#000000;stroke-width:1.5;"/><line style="stroke:#000000;stroke-width:1.5;" x1="253" x2="339.3086" y1="65.5938" y2="65.5938"/><text fill="#000000" font-family="VictorMono NF" font-size="14" font-weight="bold" lengthAdjust="spacing" textLength="73.3086" x="257" y="58.292">ambitech</text></g><!--cluster models--><g id="cluster_models"><path d="M279.5,86.2969 L337.3545,86.2969 A3.75,3.75 0 0 1 339.8545,88.7969 L346.8545,108.5938 L558.5,108.5938 A2.5,2.5 0 0 1 561,111.0938 L561,231.6869 A2.5,2.5 0 0 1 558.5,234.1869 L279.5,234.1869 A2.5,2.5 0 0 1 277,231.6869 L277,88.7969 A2.5,2.5 0 0 1 279.5,86.2969 " fill="none" style="stroke:#000000;stroke-width:1.5;"/><line style="stroke:#000000;stroke-width:1.5;" x1="277" x2="346.8545" y1="108.5938" y2="108.5938"/><text fill="#000000" font-family="VictorMono NF" font-size="14" font-weight="bold" lengthAdjust="spacing" textLength="56.8545" x="281" y="101.292">models</text></g><!--cluster analizer--><g id="cluster_analizer"><path d="M8.5,282.1869 L72.5068,282.1869 A3.75,3.75 0 0 1 75.0068,284.6869 L82.0068,304.4838 L724.5,304.4838 A2.5,2.5 0 0 1 727,306.9838 L727,502.2569 A2.5,2.5 0 0 1 724.5,504.7569 L8.5,504.7569 A2.5,2.5 0 0 1 6,502.2569 L6,284.6869 A2.5,2.5 0 0 1 8.5,282.1869 " fill="none" style="stroke:#000000;stroke-width:1.5;"/><line style="stroke:#000000;stroke-width:1.5;" x1="6" x2="82.0068" y1="304.4838" y2="304.4838"/><text fill="#000000" font-family="VictorMono NF" font-size="14" font-weight="bold" lengthAdjust="spacing" textLength="63.0068" x="10" y="297.182">analizer</text></g><!--cluster models--><g id="cluster_models"><path d="M40.5,333.1869 L98.3545,333.1869 A3.75,3.75 0 0 1 100.8545,335.6869 L107.8545,355.4838 L692.5,355.4838 A2.5,2.5 0 0 1 695,357.9838 L695,470.2569 A2.5,2.5 0 0 1 692.5,472.7569 L40.5,472.7569 A2.5,2.5 0 0 1 38,470.2569 L38,335.6869 A2.5,2.5 0 0 1 40.5,333.1869 " fill="none" style="stroke:#000000;stroke-width:1.5;"/><line style="stroke:#000000;stroke-width:1.5;" x1="38" x2="107.8545" y1="355.4838" y2="355.4838"/><text fill="#000000" font-family="VictorMono NF" font-size="14" font-weight="bold" lengthAdjust="spacing" textLength="56.8545" x="42" y="348.182">models</text></g><!--class Base--><g id="elem_Base"><rect codeLine="15" fill="#F1F1F1" height="96.8906" id="Base" rx="2.5" ry="2.5" style="stroke:#181818;stroke-width:0.5;" width="251.9072" x="293.05" y="121.2969"/><ellipse cx="397.7082" cy="137.2969" fill="#ADD1B2" rx="11" ry="11" style="stroke:#181818;stroke-width:1.0;"/><path d="M400.677,142.9375 Q400.0988,143.2344 399.4582,143.375 Q398.8176,143.5313 398.1145,143.5313 Q395.6145,143.5313 394.2863,141.8906 Q392.9738,140.2344 392.9738,137.1094 Q392.9738,133.9844 394.2863,132.3281 Q395.6145,130.6719 398.1145,130.6719 Q398.8176,130.6719 399.4582,130.8281 Q400.1145,130.9844 400.677,131.2813 L400.677,134 Q400.052,133.4219 399.4582,133.1563 Q398.8645,132.875 398.2395,132.875 Q396.8957,132.875 396.2082,133.9531 Q395.5207,135.0156 395.5207,137.1094 Q395.5207,139.2031 396.2082,140.2813 Q396.8957,141.3438 398.2395,141.3438 Q398.8645,141.3438 399.4582,141.0781 Q400.052,140.7969 400.677,140.2188 L400.677,142.9375 Z " fill="#000000"/><text fill="#000000" font-family="VictorMono NF" font-size="14" lengthAdjust="spacing" textLength="34.0908" x="418.2082" y="142.1436">Base</text><line style="stroke:#181818;stroke-width:0.5;" x1="294.05" x2="543.9572" y1="153.2969" y2="153.2969"/><ellipse cx="304.05" cy="166.9453" fill="none" rx="3" ry="3" style="stroke:#038048;stroke-width:1.0;"/><text fill="#000000" font-family="VictorMono NF" font-size="14" lengthAdjust="spacing" textLength="225.9072" x="313.05" y="170.292">enabled: Boolean[default=True]</text><ellipse cx="304.05" cy="183.2422" fill="none" rx="3" ry="3" style="stroke:#038048;stroke-width:1.0;"/><text fill="#000000" font-family="VictorMono NF" font-size="14" lengthAdjust="spacing" textLength="152.0244" x="313.05" y="186.5889">created_at: DateTime</text><ellipse cx="304.05" cy="199.5391" fill="none" rx="3" ry="3" style="stroke:#038048;stroke-width:1.0;"/><text fill="#000000" font-family="VictorMono NF" font-size="14" lengthAdjust="spacing" textLength="156.6045" x="313.05" y="202.8857">updated_at: DateTime</text><line style="stroke:#181818;stroke-width:0.5;" x1="294.05" x2="543.9572" y1="210.1875" y2="210.1875"/></g><!--class Laborat?rio--><g id="elem_Laborat&#243;rio"><rect codeLine="25" fill="#F1F1F1" height="72.5625" id="Laborat&#243;rio" rx="2.5" ry="2.5" style="stroke:#181818;stroke-width:0.5;" width="178.8311" x="61.58" y="376.1869"/><ellipse cx="106.5297" cy="396.3197" fill="#ADD1B2" rx="11" ry="11" style="stroke:#181818;stroke-width:1.0;"/><path d="M109.4985,401.9603 Q108.9203,402.2572 108.2797,402.3978 Q107.6391,402.5541 106.936,402.5541 Q104.436,402.5541 103.1078,400.9134 Q101.7953,399.2572 101.7953,396.1322 Q101.7953,393.0072 103.1078,391.3509 Q104.436,389.6947 106.936,389.6947 Q107.6391,389.6947 108.2797,389.8509 Q108.936,390.0072 109.4985,390.3041 L109.4985,393.0228 Q108.8735,392.4447 108.2797,392.1791 Q107.686,391.8978 107.061,391.8978 Q105.7172,391.8978 105.0297,392.9759 Q104.3422,394.0384 104.3422,396.1322 Q104.3422,398.2259 105.0297,399.3041 Q105.7172,400.3666 107.061,400.3666 Q107.686,400.3666 108.2797,400.1009 Q108.8735,399.8197 109.4985,399.2416 L109.4985,401.9603 Z " fill="#000000"/><text fill="#000000" font-family="VictorMono NF" font-size="12" font-style="italic" lengthAdjust="spacing" textLength="43.9043" x="145.2934" y="392.3255">&#171;Base&#187;</text><text fill="#000000" font-family="VictorMono NF" font-size="14" lengthAdjust="spacing" textLength="80.4316" x="127.0297" y="408.1507">Laborat&#243;rio</text><line style="stroke:#181818;stroke-width:0.5;" x1="62.58" x2="239.4111" y1="416.4525" y2="416.4525"/><ellipse cx="72.58" cy="430.1009" fill="none" rx="3" ry="3" style="stroke:#038048;stroke-width:1.0;"/><text fill="#000000" font-family="VictorMono NF" font-size="14" lengthAdjust="spacing" textLength="152.8311" x="81.58" y="433.4476">name: CharField[100]</text><line style="stroke:#181818;stroke-width:0.5;" x1="62.58" x2="239.4111" y1="440.7494" y2="440.7494"/></g><!--class ValorReferencia--><g id="elem_ValorReferencia"><rect codeLine="29" fill="#F1F1F1" height="72.5625" id="ValorReferencia" rx="2.5" ry="2.5" style="stroke:#181818;stroke-width:0.5;" width="143.6582" x="275.17" y="376.1869"/><ellipse cx="290.17" cy="396.3197" fill="#ADD1B2" rx="11" ry="11" style="stroke:#181818;stroke-width:1.0;"/><path d="M293.1388,401.9603 Q292.5606,402.2572 291.92,402.3978 Q291.2794,402.5541 290.5763,402.5541 Q288.0763,402.5541 286.7481,400.9134 Q285.4356,399.2572 285.4356,396.1322 Q285.4356,393.0072 286.7481,391.3509 Q288.0763,389.6947 290.5763,389.6947 Q291.2794,389.6947 291.92,389.8509 Q292.5763,390.0072 293.1388,390.3041 L293.1388,393.0228 Q292.5138,392.4447 291.92,392.1791 Q291.3263,391.8978 290.7013,391.8978 Q289.3575,391.8978 288.67,392.9759 Q287.9825,394.0384 287.9825,396.1322 Q287.9825,398.2259 288.67,399.3041 Q289.3575,400.3666 290.7013,400.3666 Q291.3263,400.3666 291.92,400.1009 Q292.5138,399.8197 293.1388,399.2416 L293.1388,401.9603 Z " fill="#000000"/><text fill="#000000" font-family="VictorMono NF" font-size="12" font-style="italic" lengthAdjust="spacing" textLength="43.9043" x="338.047" y="392.3255">&#171;Base&#187;</text><text fill="#000000" font-family="VictorMono NF" font-size="14" lengthAdjust="spacing" textLength="111.6582" x="304.17" y="408.1507">ValorReferencia</text><line style="stroke:#181818;stroke-width:0.5;" x1="276.17" x2="417.8282" y1="416.4525" y2="416.4525"/><text fill="#000000" font-family="VictorMono NF" font-size="14" lengthAdjust="spacing" textLength="13.3506" x="281.17" y="433.4476">...</text><line style="stroke:#181818;stroke-width:0.5;" x1="276.17" x2="417.8282" y1="440.7494" y2="440.7494"/></g><!--class Matriz--><g id="elem_Matriz"><rect codeLine="33" fill="#F1F1F1" height="72.5625" id="Matriz" rx="2.5" ry="2.5" style="stroke:#181818;stroke-width:0.5;" width="75.1416" x="453.43" y="376.1869"/><ellipse cx="468.43" cy="396.3197" fill="#ADD1B2" rx="11" ry="11" style="stroke:#181818;stroke-width:1.0;"/><path d="M471.3988,401.9603 Q470.8206,402.2572 470.18,402.3978 Q469.5394,402.5541 468.8363,402.5541 Q466.3363,402.5541 465.0081,400.9134 Q463.6956,399.2572 463.6956,396.1322 Q463.6956,393.0072 465.0081,391.3509 Q466.3363,389.6947 468.8363,389.6947 Q469.5394,389.6947 470.18,389.8509 Q470.8363,390.0072 471.3988,390.3041 L471.3988,393.0228 Q470.7738,392.4447 470.18,392.1791 Q469.5863,391.8978 468.9613,391.8978 Q467.6175,391.8978 466.93,392.9759 Q466.2425,394.0384 466.2425,396.1322 Q466.2425,398.2259 466.93,399.3041 Q467.6175,400.3666 468.9613,400.3666 Q469.5863,400.3666 470.18,400.1009 Q470.7738,399.8197 471.3988,399.2416 L471.3988,401.9603 Z " fill="#000000"/><text fill="#000000" font-family="VictorMono NF" font-size="12" font-style="italic" lengthAdjust="spacing" textLength="43.9043" x="482.0487" y="392.3255">&#171;Base&#187;</text><text fill="#000000" font-family="VictorMono NF" font-size="14" lengthAdjust="spacing" textLength="43.1416" x="482.43" y="408.1507">Matriz</text><line style="stroke:#181818;stroke-width:0.5;" x1="454.43" x2="527.5716" y1="416.4525" y2="416.4525"/><text fill="#000000" font-family="VictorMono NF" font-size="14" lengthAdjust="spacing" textLength="13.3506" x="459.43" y="433.4476">...</text><line style="stroke:#181818;stroke-width:0.5;" x1="454.43" x2="527.5716" y1="440.7494" y2="440.7494"/></g><!--class Senario--><g id="elem_Senario"><rect codeLine="37" fill="#F1F1F1" height="72.5625" id="Senario" rx="2.5" ry="2.5" style="stroke:#181818;stroke-width:0.5;" width="85.1631" x="563.42" y="376.1869"/><ellipse cx="578.42" cy="396.3197" fill="#ADD1B2" rx="11" ry="11" style="stroke:#181818;stroke-width:1.0;"/><path d="M581.3888,401.9603 Q580.8106,402.2572 580.17,402.3978 Q579.5294,402.5541 578.8263,402.5541 Q576.3263,402.5541 574.9981,400.9134 Q573.6856,399.2572 573.6856,396.1322 Q573.6856,393.0072 574.9981,391.3509 Q576.3263,389.6947 578.8263,389.6947 Q579.5294,389.6947 580.17,389.8509 Q580.8263,390.0072 581.3888,390.3041 L581.3888,393.0228 Q580.7638,392.4447 580.17,392.1791 Q579.5763,391.8978 578.9513,391.8978 Q577.6075,391.8978 576.92,392.9759 Q576.2325,394.0384 576.2325,396.1322 Q576.2325,398.2259 576.92,399.3041 Q577.6075,400.3666 578.9513,400.3666 Q579.5763,400.3666 580.17,400.1009 Q580.7638,399.8197 581.3888,399.2416 L581.3888,401.9603 Z " fill="#000000"/><text fill="#000000" font-family="VictorMono NF" font-size="12" font-style="italic" lengthAdjust="spacing" textLength="43.9043" x="597.0494" y="392.3255">&#171;Base&#187;</text><text fill="#000000" font-family="VictorMono NF" font-size="14" lengthAdjust="spacing" textLength="53.1631" x="592.42" y="408.1507">Senario</text><line style="stroke:#181818;stroke-width:0.5;" x1="564.42" x2="647.5831" y1="416.4525" y2="416.4525"/><text fill="#000000" font-family="VictorMono NF" font-size="14" lengthAdjust="spacing" textLength="13.3506" x="569.42" y="433.4476">...</text><line style="stroke:#181818;stroke-width:0.5;" x1="564.42" x2="647.5831" y1="440.7494" y2="440.7494"/></g><g id="elem_GMN11"><path d="M512.77,520.7569 L512.77,545.8897 L857.2275,545.8897 L857.2275,530.7569 L847.2275,520.7569 L512.77,520.7569 " fill="#FEFFDD" style="stroke:#181818;stroke-width:0.5;"/><path d="M847.2275,520.7569 L847.2275,530.7569 L857.2275,530.7569 L847.2275,520.7569 " fill="#FEFFDD" style="stroke:#181818;stroke-width:1.0;"/><text fill="#000000" font-family="VictorMono NF" font-size="13" lengthAdjust="spacing" textLength="323.4575" x="518.77" y="537.8238">Classes que representam os dados do formul&#225;rio.</text></g><!--link models to GMN11--><g id="link_models_GMN11"><path d="M685,473.1693 C685,473.5201 685,473.871 685,474.2218 C685,474.9235 685,475.6249 685,476.3256 C685,481.9316 685,487.4968 685,492.8208 C685,503.4687 685,513.1519 685,520.2669 " fill="none" id="models-GMN11" style="stroke:#181818;stroke-width:1.0;stroke-dasharray:7.0,7.0;"/></g><!--reverse link Base to Laborat?rio--><g id="link_Base_Laborat&#243;rio"><path codeLine="49" d="M317.5896,228.2163 C292.1996,244.2463 280.45,253.6969 258,274.1869 C224.64,304.6469 193.75,346.3569 173.82,375.7769 " fill="none" id="Base-backto-Laborat&#243;rio" style="stroke:#181818;stroke-width:1.0;"/><polygon fill="none" points="332.81,218.6069,314.3865,223.1428,320.7928,233.2897,332.81,218.6069" style="stroke:#181818;stroke-width:1.0;"/></g><!--reverse link Base to ValorReferencia--><g id="link_Base_ValorReferencia"><path codeLine="50" d="M399.5321,235.842 C385.6721,282.182 370.13,334.1469 357.66,375.8469 " fill="none" id="Base-backto-ValorReferencia" style="stroke:#181818;stroke-width:1.0;"/><polygon fill="none" points="404.69,218.5969,393.7837,234.1227,405.2805,237.5614,404.69,218.5969" style="stroke:#181818;stroke-width:1.0;"/></g><!--reverse link Base to Matriz--><g id="link_Base_Matriz"><path codeLine="51" d="M438.4679,235.842 C452.3279,282.182 467.87,334.1469 480.34,375.8469 " fill="none" id="Base-backto-Matriz" style="stroke:#181818;stroke-width:1.0;"/><polygon fill="none" points="433.31,218.5969,432.7195,237.5614,444.2163,234.1227,433.31,218.5969" style="stroke:#181818;stroke-width:1.0;"/></g><!--reverse link Base to Senario--><g id="link_Base_Senario"><path codeLine="52" d="M503.8287,229.8151 C523.8387,245.7851 530.35,253.5869 546,274.1869 C569.44,305.0569 585.92,346.4969 595.6,375.7469 " fill="none" id="Base-backto-Senario" style="stroke:#181818;stroke-width:1.0;"/><polygon fill="none" points="489.76,218.5869,500.0859,234.5046,507.5714,225.1255,489.76,218.5869" style="stroke:#181818;stroke-width:1.0;"/></g><!--SRC=[dLDBJiCm4Dtx52Enw08H1GGigiAYhRgYNPIA3K9e6a-AXUCfOsV3vp2SWIDmCUoce11KX70aAnc_UUFtPjA34RlIh6h1ODXv65E9jGtAtnktHi7gCp9X5sPO4LoP8h1CsJ7C9ahrkWmB4ooryZVVANl4bWNsylnuV7hI1Gonk5y9rqvlOPCyFJzWB9haTwODPDvGYIE1moEbL4XdC6LDbZre1czye0gLMiVIk2B0Qca25NVmf22kpt2LKlmsc5PXqNiOegTMCArz88TBIxeFGsPBwAvrOzxPGcgwwO0B8GoaRp7qOHpV5gQY3gHUwzsG5zNiBoq93grvZ9B_9E42bnoxzlucXWU39EZy_8Sa5tlUXz4ToiIGrTU7UNxJkaA7yWfZP-PKaf0h3EvWpR9iDyKKWvZ7_sHUHljtI_cU-cLT3sOSo2iNTrXo25m1brzEPert6_meLI4F3pM1q5h8amjnxD8yeMwcgcIfQll-6k-HAN8Q4c-gCYVR_21gCpc3vuE3RmreXJicjauQRrg1hUGF]--></g></svg>